<svg width="694" height="733" viewBox="0 0 694 733" fill="none" xmlns="http://www.w3.org/2000/svg">
<g clip-path="url(#clip0_126_71)">
<path fill-rule="evenodd" clip-rule="evenodd" d="M469.625 255.592C519.445 249.339 573.316 261.627 614.498 290.351C655.007 318.605 661.07 376.924 695.015 412.797C729.989 449.757 798.064 455.574 815.926 503.22C833.563 550.265 789.497 598.846 783.464 648.725C777.532 697.769 810.219 755.744 780.6 795.281C749.752 836.459 677.895 814.863 636.309 845.16C594.649 875.51 590.027 943.462 544.369 967.38C499.416 990.929 439.591 994.173 393.866 972.162C346.935 949.571 333.847 888.946 299.711 849.607C272.788 818.581 236.35 797.71 213.1 763.845C188.925 728.632 174.148 688.899 161.392 648.136C146.812 601.544 114.064 551.409 132.47 506.191C151.274 459.997 216.157 454.149 253.715 421.333C286.591 392.608 305.456 351.373 340.086 324.79C379.347 294.651 420.515 261.755 469.625 255.592Z" fill="url(#paint0_linear_126_71)" fill-opacity="0.4"/>
</g>
<defs>
<linearGradient id="paint0_linear_126_71" x1="70" y1="48.5" x2="820" y2="849" gradientUnits="userSpaceOnUse">
<stop stop-color="#76219E"/>
<stop offset="1" stop-color="#76219E" stop-opacity="0"/>
</linearGradient>
<clipPath id="clip0_126_71">
<rect width="693.07" height="732.99" fill="white"/>
</clipPath>
</defs>
</svg>
