<svg width="569" height="620" viewBox="0 0 569 620" fill="none" xmlns="http://www.w3.org/2000/svg">
<g clip-path="url(#clip0_126_68)">
<path fill-rule="evenodd" clip-rule="evenodd" d="M184.934 118.724C256.037 135.776 243.87 251.485 296.106 302.649C332.486 338.282 399.642 324.061 433.452 362.142C471.056 404.496 506.601 465.627 488.436 519.273C469.749 574.463 392.276 579.259 347.365 616.384C312.297 645.373 295.359 692.571 254.524 712.637C209.714 734.657 158.737 740.009 109.249 733.395C54.0887 726.022 -15.7106 721.559 -42.7274 672.906C-70.8038 622.345 -12.0221 562.325 -17.7037 504.771C-22.9736 451.388 -83.9916 410.124 -73.8691 357.445C-63.6452 304.239 -6.57613 276.343 33.2485 239.609C81.7551 194.866 120.763 103.334 184.934 118.724Z" fill="url(#paint0_linear_126_68)" fill-opacity="0.4"/>
</g>
<defs>
<linearGradient id="paint0_linear_126_68" x1="555" y1="95.5" x2="-22.5" y2="746.5" gradientUnits="userSpaceOnUse">
<stop stop-color="#76219E"/>
<stop offset="1" stop-color="#76219E" stop-opacity="0"/>
</linearGradient>
<clipPath id="clip0_126_68">
<rect width="568.33" height="619.04" fill="white"/>
</clipPath>
</defs>
</svg>
