<svg width="28" height="28" viewBox="0 0 28 28" fill="none" xmlns="http://www.w3.org/2000/svg">
<path d="M14 0.905273C10.2007 0.905273 9.723 0.921952 8.23025 0.985329C6.7375 1.05204 5.72075 1.27553 4.83 1.60576C3.89566 1.94069 3.04936 2.46606 2.35025 3.14515C1.63813 3.81177 1.08694 4.61823 0.735 5.50845C0.3885 6.3557 0.15225 7.32637 0.084 8.74401C0.0175 10.17 0 10.6236 0 14.2495C0 17.872 0.0175 18.3256 0.084 19.7483C0.154 21.1692 0.3885 22.1382 0.735 22.9872C1.09375 23.8644 1.5715 24.6083 2.35025 25.3505C3.12725 26.0926 3.90775 26.5496 4.82825 26.8899C5.72075 27.2201 6.73575 27.4452 8.22675 27.5103C9.72125 27.5737 10.1972 27.5903 14 27.5903C17.8028 27.5903 18.277 27.5737 19.7715 27.5103C21.2608 27.4436 22.281 27.2201 23.1718 26.8899C24.1055 26.5548 24.9512 26.0294 25.6497 25.3505C26.4285 24.6083 26.9062 23.8644 27.265 22.9872C27.6097 22.1382 27.846 21.1692 27.916 19.7483C27.9825 18.3256 28 17.872 28 14.2478C28 10.6236 27.9825 10.17 27.916 8.74568C27.846 7.32637 27.6097 6.3557 27.265 5.50845C26.9131 4.61821 26.3619 3.81174 25.6497 3.14515C24.9509 2.46581 24.1045 1.9404 23.17 1.60576C22.2775 1.27553 21.259 1.05037 19.7697 0.985329C18.2752 0.921952 17.801 0.905273 13.9965 0.905273H14.0018H14ZM12.7452 3.31027H14.0018C17.7398 3.31027 18.1825 3.32194 19.6577 3.38699C21.0227 3.44536 21.7647 3.66384 22.2582 3.84563C22.911 4.08747 23.3782 4.37767 23.8682 4.84466C24.3582 5.31165 24.661 5.75529 24.9148 6.37905C25.1073 6.84771 25.3348 7.55486 25.396 8.85576C25.4643 10.2617 25.4783 10.6837 25.4783 14.2445C25.4783 17.8053 25.4643 18.2289 25.396 19.6349C25.3348 20.9358 25.1055 21.6412 24.9148 22.1116C24.6903 22.6909 24.332 23.2147 23.8665 23.6443C23.3765 24.1113 22.911 24.3998 22.2565 24.6416C21.7665 24.8251 21.0245 25.0419 19.6577 25.102C18.1825 25.1653 17.7398 25.1803 14.0018 25.1803C10.2638 25.1803 9.81925 25.1653 8.344 25.102C6.979 25.0419 6.23875 24.8251 5.74525 24.6416C5.13712 24.428 4.58697 24.0872 4.13525 23.6443C3.66931 23.214 3.31052 22.6897 3.08525 22.1099C2.8945 21.6412 2.66525 20.9341 2.604 19.6332C2.5375 18.2272 2.5235 17.8053 2.5235 14.2411C2.5235 10.6787 2.5375 10.2584 2.604 8.85242C2.667 7.55152 2.8945 6.84437 3.087 6.37405C3.34075 5.75195 3.64525 5.30664 4.13525 4.83965C4.62525 4.37266 5.09075 4.08413 5.74525 3.8423C6.23875 3.65884 6.979 3.44202 8.344 3.38198C9.6355 3.32528 10.136 3.3086 12.7452 3.30693V3.31027ZM21.4742 5.52513C21.2536 5.52513 21.0352 5.56654 20.8313 5.647C20.6275 5.72747 20.4423 5.8454 20.2863 5.99408C20.1303 6.14276 20.0066 6.31926 19.9221 6.51351C19.8377 6.70777 19.7942 6.91597 19.7942 7.12623C19.7942 7.33649 19.8377 7.54469 19.9221 7.73895C20.0066 7.9332 20.1303 8.10971 20.2863 8.25838C20.4423 8.40706 20.6275 8.52499 20.8313 8.60546C21.0352 8.68592 21.2536 8.72733 21.4742 8.72733C21.9198 8.72733 22.3471 8.55865 22.6622 8.25838C22.9773 7.95812 23.1542 7.55087 23.1542 7.12623C23.1542 6.70159 22.9773 6.29434 22.6622 5.99408C22.3471 5.69381 21.9198 5.52513 21.4742 5.52513ZM14.0018 7.39642C13.0481 7.38224 12.1011 7.549 11.2157 7.88699C10.3304 8.22498 9.5244 8.72745 8.84476 9.36515C8.16513 10.0028 7.62539 10.763 7.25697 11.6014C6.88856 12.4398 6.69883 13.3397 6.69883 14.2486C6.69883 15.1576 6.88856 16.0575 7.25697 16.8959C7.62539 17.7343 8.16513 18.4944 8.84476 19.1321C9.5244 19.7698 10.3304 20.2723 11.2157 20.6103C12.1011 20.9483 13.0481 21.115 14.0018 21.1009C15.8892 21.0728 17.6894 20.3385 19.0137 19.0565C20.338 17.7746 21.0803 16.0477 21.0803 14.2486C21.0803 12.4496 20.338 10.7227 19.0137 9.44074C17.6894 8.15875 15.8892 7.42448 14.0018 7.39642ZM14.0018 9.79974C15.2396 9.79974 16.4267 10.2684 17.302 11.1025C18.1773 11.9367 18.669 13.0681 18.669 14.2478C18.669 15.4275 18.1773 16.5589 17.302 17.3931C16.4267 18.2272 15.2396 18.6959 14.0018 18.6959C12.7639 18.6959 11.5768 18.2272 10.7015 17.3931C9.82623 16.5589 9.3345 15.4275 9.3345 14.2478C9.3345 13.0681 9.82623 11.9367 10.7015 11.1025C11.5768 10.2684 12.7639 9.79974 14.0018 9.79974Z" fill="black"/>
</svg>
