<svg width="179" height="43" viewBox="0 0 179 43" fill="none" xmlns="http://www.w3.org/2000/svg">
<path d="M0.0240002 34.654C0.192 33.646 0.374 32.624 0.57 31.588C0.794 30.552 1.06 29.404 1.368 28.144C1.704 26.884 2.11 25.442 2.586 23.818C3.09 22.194 3.692 20.304 4.392 18.148C3.972 18.176 3.51 18.218 3.006 18.274C2.53 18.33 2.082 18.372 1.662 18.4C1.662 17.504 1.998 16.818 2.67 16.342C3.342 15.866 4.224 15.516 5.316 15.292C5.428 14.9 5.526 14.592 5.61 14.368C5.694 14.144 5.792 13.864 5.904 13.528C6.016 13.192 6.184 12.73 6.408 12.142C6.632 11.526 6.926 10.658 7.29 9.538C7.682 8.418 8.186 6.948 8.802 5.128C8.858 4.988 8.956 4.708 9.096 4.288C9.236 3.868 9.306 3.476 9.306 3.112C9.306 2.888 9.264 2.734 9.18 2.65C9.124 2.566 8.984 2.524 8.76 2.524C8.2 2.524 7.626 2.776 7.038 3.28C6.478 3.784 5.96 4.428 5.484 5.212C5.008 5.968 4.63 6.766 4.35 7.606C4.07 8.418 3.93 9.146 3.93 9.79C3.93 10.014 3.958 10.266 4.014 10.546C4.07 10.826 4.182 11.204 4.35 11.68C3.174 11.68 2.32 11.428 1.788 10.924C1.284 10.392 1.032 9.72 1.032 8.908C1.032 7.956 1.312 7.004 1.872 6.052C2.46 5.1 3.202 4.232 4.098 3.448C5.022 2.636 5.988 1.992 6.996 1.516C8.032 1.012 8.984 0.759999 9.852 0.759999C10.748 0.759999 11.364 0.997999 11.7 1.474C12.036 1.95 12.204 2.482 12.204 3.07C12.204 3.378 12.162 3.686 12.078 3.994C12.022 4.302 11.952 4.596 11.868 4.876L8.802 14.956C9.138 14.928 9.474 14.914 9.81 14.914C10.174 14.914 10.538 14.914 10.902 14.914C12.274 14.914 13.562 14.942 14.766 14.998C15.97 15.054 17.132 15.138 18.252 15.25C18.952 12.898 19.54 10.966 20.016 9.454C20.52 7.942 20.954 6.696 21.318 5.716C21.71 4.708 22.06 3.826 22.368 3.07C22.48 2.846 22.634 2.552 22.83 2.188C23.054 1.796 23.362 1.46 23.754 1.18C24.174 0.871999 24.72 0.717999 25.392 0.717999C25.028 1.698 24.58 3 24.048 4.624C23.544 6.22 23.026 7.97 22.494 9.874C21.962 11.75 21.458 13.612 20.982 15.46C21.374 15.46 21.92 15.488 22.62 15.544C23.348 15.572 24.02 15.586 24.636 15.586C23.768 16.454 22.998 17 22.326 17.224C21.654 17.42 21.038 17.518 20.478 17.518C20.17 18.806 19.89 20.038 19.638 21.214C19.386 22.39 19.176 23.482 19.008 24.49C18.672 26.282 18.42 27.85 18.252 29.194C18.112 30.51 18.042 31.588 18.042 32.428C18.042 32.876 18.056 33.268 18.084 33.604C18.14 33.968 18.196 34.318 18.252 34.654C16.824 34.514 15.844 34.164 15.312 33.604C14.808 33.072 14.556 32.12 14.556 30.748C14.556 30.104 14.598 29.39 14.682 28.606C14.794 27.822 14.976 26.898 15.228 25.834C15.452 24.798 15.76 23.608 16.152 22.264C16.544 20.92 17.02 19.352 17.58 17.56C15.872 17.56 14.458 17.574 13.338 17.602C12.218 17.63 11.238 17.658 10.398 17.686C9.558 17.714 8.718 17.77 7.878 17.854C7.85 17.966 7.78 18.204 7.668 18.568C7.556 18.932 7.36 19.576 7.08 20.5C6.8 21.424 6.38 22.782 5.82 24.574C5.26 26.366 4.504 28.774 3.552 31.798C3.244 32.834 2.712 33.562 1.956 33.982C1.2 34.43 0.556 34.654 0.0240002 34.654ZM26.2583 32.974C25.3343 32.974 24.5363 32.666 23.8642 32.05C23.1642 31.434 22.8142 30.51 22.8142 29.278C22.8142 28.298 23.0382 27.234 23.4862 26.086C23.9342 24.938 24.5503 23.804 25.3343 22.684C26.1183 21.564 27.0143 20.556 28.0223 19.66C29.0303 18.736 30.1083 17.994 31.2563 17.434C32.4043 16.874 33.5523 16.594 34.7002 16.594C35.9043 16.594 36.9263 16.902 37.7663 17.518C38.6063 18.134 39.0263 18.946 39.0263 19.954C39.0263 20.71 38.7603 21.256 38.2283 21.592C37.6963 21.928 37.0663 22.026 36.3383 21.886C36.3943 21.634 36.4363 21.382 36.4643 21.13C36.5203 20.878 36.5483 20.612 36.5483 20.332C36.5483 19.772 36.4363 19.268 36.2123 18.82C35.9883 18.372 35.5123 18.148 34.7843 18.148C34.0003 18.148 33.2023 18.414 32.3903 18.946C31.5783 19.478 30.7943 20.178 30.0383 21.046C29.3103 21.886 28.6523 22.824 28.0643 23.86C27.4763 24.868 27.0143 25.862 26.6782 26.842C26.3423 27.822 26.1743 28.704 26.1743 29.488C26.1743 30.384 26.4963 30.832 27.1403 30.832C27.7843 30.832 28.4983 30.524 29.2823 29.908C30.0663 29.264 30.8503 28.466 31.6343 27.514C32.4463 26.562 33.2163 25.596 33.9443 24.616C34.6723 23.608 35.3023 22.754 35.8343 22.054C35.9183 21.914 36.0303 21.844 36.1703 21.844C36.2823 21.872 36.4923 21.942 36.8003 22.054C37.1363 22.138 37.4443 22.278 37.7243 22.474C38.0043 22.67 38.1443 22.922 38.1443 23.23C38.1443 23.51 38.0183 23.874 37.7663 24.322C37.5423 24.742 37.2623 25.218 36.9263 25.75C36.6183 26.254 36.3383 26.772 36.0863 27.304C35.8623 27.808 35.7503 28.298 35.7503 28.774C35.7503 29.138 35.8483 29.488 36.0443 29.824C36.2403 30.132 36.5623 30.286 37.0103 30.286C37.6823 30.286 38.6203 29.796 39.8243 28.816C41.0563 27.808 42.3023 26.114 43.5623 23.734L44.3603 24.532C43.6883 26.044 42.8763 27.388 41.9243 28.564C41.0003 29.712 40.0203 30.608 38.9843 31.252C37.9483 31.924 36.8983 32.26 35.8343 32.26C34.6863 32.26 33.8323 31.896 33.2723 31.168C32.7123 30.44 32.4043 29.656 32.3483 28.816C32.3483 28.76 32.3483 28.718 32.3483 28.69C32.3483 28.662 32.3483 28.634 32.3483 28.606C31.2283 29.95 30.1923 31.014 29.2403 31.798C28.3163 32.582 27.3223 32.974 26.2583 32.974ZM45.9284 32.26C44.6964 32.26 43.7724 31.896 43.1564 31.168C42.5404 30.44 42.2324 29.558 42.2324 28.522C42.2324 27.878 42.3444 27.066 42.5684 26.086C42.7924 25.106 43.1004 24.084 43.4924 23.02C43.9124 21.928 44.3884 20.906 44.9204 19.954C45.4524 19.002 46.0264 18.232 46.6424 17.644C47.2584 17.028 47.8744 16.72 48.4904 16.72C48.8264 16.72 49.1204 16.832 49.3724 17.056C49.6244 17.252 49.7504 17.546 49.7504 17.938C49.7504 18.302 49.5264 18.848 49.0784 19.576C48.6584 20.304 48.1544 21.144 47.5664 22.096C47.0064 23.048 46.5024 24.042 46.0544 25.078C45.6344 26.086 45.4244 27.052 45.4244 27.976C45.4244 28.872 45.5784 29.474 45.8864 29.782C46.2224 30.062 46.6984 30.202 47.3144 30.202C48.2664 30.202 49.3024 29.726 50.4224 28.774C51.5424 27.822 52.7044 26.156 53.9084 23.776L54.5384 24.448C53.5584 26.912 52.3124 28.83 50.8004 30.202C49.2884 31.574 47.6644 32.26 45.9284 32.26ZM50.8844 13.318C50.3524 13.318 49.8624 13.192 49.4144 12.94C48.9944 12.66 48.7844 12.24 48.7844 11.68C48.7844 11.008 49.1484 10.434 49.8764 9.958C50.6044 9.482 51.3604 9.244 52.1444 9.244C52.6484 9.244 53.0684 9.356 53.4044 9.58C53.7684 9.804 53.9504 10.21 53.9504 10.798C53.9504 11.386 53.6284 11.96 52.9844 12.52C52.3404 13.052 51.6404 13.318 50.8844 13.318ZM60.5923 32.092C59.5563 32.092 58.7163 31.812 58.0723 31.252C57.4283 30.72 57.1063 29.992 57.1063 29.068C57.1063 28.284 57.3023 27.444 57.6943 26.548C58.0863 25.652 58.4783 24.77 58.8703 23.902C59.2903 23.034 59.5003 22.264 59.5003 21.592C59.5003 20.948 59.2903 20.416 58.8703 19.996C58.4503 19.548 57.9603 19.184 57.4003 18.904C56.7843 20.444 56.0843 21.942 55.3003 23.398C54.5443 24.826 53.9283 25.946 53.4523 26.758L52.8223 25.54C53.2143 24.812 53.7323 23.776 54.3763 22.432C55.0203 21.088 55.6363 19.59 56.2243 17.938C55.9443 17.658 55.8043 17.28 55.8043 16.804C55.8043 16.076 56.0283 15.39 56.4763 14.746C56.9243 14.102 57.3583 13.78 57.7783 13.78C58.1143 13.78 58.3523 13.976 58.4923 14.368C58.6603 14.732 58.7443 14.984 58.7443 15.124C58.7443 15.264 58.6743 15.516 58.5343 15.88C58.4223 16.244 58.3383 16.51 58.2823 16.678C58.3103 16.986 58.5483 17.294 58.9963 17.602C59.4723 17.882 60.0043 18.218 60.5923 18.61C61.1803 19.002 61.6983 19.492 62.1463 20.08C62.5943 20.668 62.8183 21.41 62.8183 22.306C62.8183 23.118 62.6363 23.944 62.2723 24.784C61.9083 25.624 61.5443 26.408 61.1803 27.136C60.8163 27.864 60.6343 28.494 60.6343 29.026C60.6343 29.418 60.7323 29.684 60.9283 29.824C61.1523 29.936 61.4043 29.992 61.6843 29.992C62.3563 29.992 63.0563 29.796 63.7843 29.404C64.5123 28.984 65.2263 28.452 65.9263 27.808C66.6263 27.164 67.2423 26.492 67.7743 25.792C68.3063 25.064 68.7123 24.406 68.9923 23.818L70.0003 24.574C69.4683 25.778 68.6983 26.968 67.6903 28.144C66.6823 29.292 65.5623 30.244 64.3303 31C63.0983 31.728 61.8523 32.092 60.5923 32.092ZM72.9941 14.032C72.6301 13.892 72.3641 13.668 72.1961 13.36C72.0561 13.024 71.9861 12.786 71.9861 12.646C71.9861 12.422 72.1261 12.058 72.4061 11.554C72.6861 11.022 73.0501 10.476 73.4981 9.916C73.9461 9.328 74.4081 8.838 74.8841 8.446C75.3881 8.026 75.8641 7.816 76.3121 7.816C76.6201 7.816 76.8861 7.928 77.1101 8.152C77.3621 8.348 77.5161 8.726 77.5721 9.286C76.5921 10.238 75.7241 11.078 74.9681 11.806C74.2401 12.506 73.5821 13.248 72.9941 14.032ZM78.9003 33.142C77.5003 33.142 76.3663 32.848 75.4983 32.26C74.6583 31.7 74.0563 30.986 73.6923 30.118C73.3283 29.222 73.1463 28.312 73.1463 27.388C73.1463 26.576 73.2583 25.946 73.4823 25.498C73.7063 25.05 73.9863 24.728 74.3223 24.532C74.6583 24.308 74.9663 24.14 75.2463 24.028C75.5543 23.916 75.7783 23.79 75.9183 23.65C76.6183 22.922 77.3323 22.082 78.0603 21.13C78.8163 20.15 79.4603 19.072 79.9923 17.896V17.476C79.9923 16.356 80.1743 15.572 80.5383 15.124C80.9303 14.648 81.3783 14.41 81.8823 14.41C82.2183 14.41 82.4563 14.494 82.5963 14.662C82.7643 14.83 82.8623 15.026 82.8903 15.25C82.8903 15.418 82.8483 15.614 82.7643 15.838C82.7083 16.062 82.6803 16.37 82.6803 16.762C82.6803 17.602 82.8763 18.568 83.2683 19.66C83.6883 20.724 84.0943 21.858 84.4863 23.062C84.9063 24.266 85.1163 25.498 85.1163 26.758C85.1163 27.094 85.1023 27.402 85.0743 27.682C85.0463 27.962 85.0043 28.228 84.9483 28.48C85.8163 28.256 86.6703 27.78 87.5103 27.052C88.3503 26.296 89.1483 25.19 89.9043 23.734L90.4083 24.112C89.8763 25.708 89.1063 26.996 88.0983 27.976C87.0903 28.928 85.9143 29.516 84.5703 29.74C84.1223 30.888 83.3803 31.742 82.3443 32.302C81.3363 32.862 80.1883 33.142 78.9003 33.142ZM78.6063 31.294C79.1663 31.294 79.6843 31.154 80.1603 30.874C80.6363 30.594 81.0143 30.188 81.2943 29.656C80.1463 29.404 79.1103 28.956 78.1863 28.312C77.2623 27.668 76.5483 27.01 76.0443 26.338C75.6523 26.422 75.4563 26.8 75.4563 27.472C75.4563 28.396 75.7223 29.264 76.2543 30.076C76.7863 30.888 77.5703 31.294 78.6063 31.294ZM81.6303 28.396C81.6863 28.2 81.7143 27.976 81.7143 27.724C81.7423 27.444 81.7563 27.234 81.7563 27.094C81.7283 25.834 81.5603 24.588 81.2523 23.356C80.9443 22.124 80.6363 20.864 80.3283 19.576C79.8243 20.444 79.2363 21.382 78.5643 22.39C77.8923 23.398 77.2623 24.21 76.6743 24.826C77.1223 25.582 77.7803 26.296 78.6483 26.968C79.5163 27.64 80.5103 28.116 81.6303 28.396ZM109.407 34.654C107.783 34.654 106.229 34.374 104.745 33.814C103.289 33.254 102.099 32.4 101.175 31.252C100.251 30.104 99.7891 28.676 99.7891 26.968C99.7891 25.456 100.125 24.28 100.797 23.44C101.469 22.572 102.309 21.97 103.317 21.634C104.325 21.298 105.305 21.13 106.257 21.13C105.361 22.082 104.675 23.062 104.199 24.07C103.751 25.078 103.527 26.044 103.527 26.968C103.527 27.92 103.765 28.816 104.241 29.656C104.745 30.468 105.487 31.126 106.467 31.63C107.447 32.162 108.665 32.428 110.121 32.428C111.381 32.428 112.599 32.218 113.775 31.798C114.979 31.378 115.959 30.748 116.715 29.908C117.499 29.068 117.891 28.018 117.891 26.758C117.891 25.61 117.555 24.63 116.883 23.818C116.239 22.978 115.399 22.236 114.363 21.592C113.327 20.92 112.235 20.29 111.087 19.702C109.939 19.086 108.847 18.428 107.811 17.728C106.775 17.028 105.921 16.216 105.249 15.292C104.605 14.368 104.283 13.262 104.283 11.974C104.283 10.826 104.563 9.608 105.123 8.32C105.711 7.004 106.537 5.772 107.601 4.624C108.665 3.476 109.953 2.552 111.465 1.852C112.977 1.124 114.657 0.759999 116.505 0.759999C118.437 0.759999 119.795 1.166 120.579 1.978C121.363 2.79 121.755 3.854 121.755 5.17C121.755 6.206 121.573 7.312 121.209 8.488C120.845 9.664 120.397 10.784 119.865 11.848C119.361 12.912 118.871 13.822 118.395 14.578C117.779 14.438 117.317 14.2 117.009 13.864C116.701 13.5 116.547 13.024 116.547 12.436C116.547 11.848 116.659 11.19 116.883 10.462C117.135 9.734 117.415 8.978 117.723 8.194C118.059 7.41 118.339 6.654 118.563 5.926C118.815 5.17 118.941 4.512 118.941 3.952C118.941 3.448 118.787 3.056 118.479 2.776C118.199 2.496 117.611 2.356 116.715 2.356C115.371 2.356 114.139 2.65 113.019 3.238C111.899 3.826 110.919 4.568 110.079 5.464C109.267 6.36 108.637 7.312 108.189 8.32C107.741 9.3 107.517 10.196 107.517 11.008C107.517 12.016 107.839 12.884 108.483 13.612C109.127 14.312 109.953 14.956 110.961 15.544C111.997 16.132 113.075 16.72 114.195 17.308C115.343 17.896 116.421 18.554 117.429 19.282C118.465 20.01 119.305 20.878 119.949 21.886C120.593 22.894 120.915 24.126 120.915 25.582C120.915 27.038 120.579 28.326 119.907 29.446C119.263 30.566 118.381 31.504 117.261 32.26C116.141 33.044 114.895 33.632 113.523 34.024C112.179 34.444 110.807 34.654 109.407 34.654ZM127.273 32.932C126.041 32.932 125.047 32.568 124.291 31.84C123.535 31.112 123.157 30.006 123.157 28.522C123.157 27.374 123.367 25.946 123.787 24.238C124.235 22.53 124.795 20.766 125.467 18.946C125.271 18.89 125.033 18.848 124.753 18.82C124.501 18.764 124.249 18.68 123.997 18.568V17.266C124.445 17.322 124.809 17.364 125.089 17.392C125.397 17.42 125.705 17.448 126.013 17.476C126.601 15.992 127.231 14.564 127.903 13.192C128.603 11.792 129.289 10.546 129.961 9.454C130.661 8.362 131.319 7.508 131.935 6.892C132.551 6.248 133.097 5.926 133.573 5.926C133.853 5.926 134.119 6.038 134.371 6.262C134.623 6.458 134.749 6.752 134.749 7.144C134.749 7.704 134.455 8.502 133.867 9.538C133.307 10.574 132.607 11.792 131.767 13.192C130.927 14.564 130.115 16.034 129.331 17.602C129.555 17.602 129.779 17.602 130.003 17.602C130.227 17.602 130.437 17.602 130.633 17.602C131.865 17.602 132.971 17.588 133.951 17.56C134.959 17.504 135.981 17.42 137.017 17.308V18.694C135.477 18.834 134.063 18.946 132.775 19.03C131.487 19.114 130.255 19.17 129.079 19.198C128.995 19.198 128.911 19.198 128.827 19.198C128.743 19.198 128.659 19.198 128.575 19.198C127.987 20.57 127.469 21.984 127.021 23.44C126.601 24.868 126.391 26.268 126.391 27.64C126.391 28.788 126.573 29.6 126.937 30.076C127.301 30.552 127.875 30.79 128.659 30.79C130.059 30.79 131.487 30.16 132.943 28.9C134.427 27.612 135.715 25.876 136.807 23.692L137.395 24.112C136.667 25.764 135.757 27.262 134.665 28.606C133.601 29.95 132.439 31 131.179 31.756C129.919 32.54 128.617 32.932 127.273 32.932ZM137.567 42.76C136.867 42.76 136.209 42.536 135.593 42.088C135.005 41.668 134.711 40.982 134.711 40.03C134.711 39.134 134.977 38.322 135.509 37.594C136.041 36.894 136.727 36.236 137.567 35.62C138.407 35.032 139.303 34.486 140.255 33.982C141.235 33.506 142.173 33.058 143.069 32.638C143.377 31.826 143.713 30.804 144.077 29.572C144.469 28.312 144.805 27.15 145.085 26.086C144.217 27.29 143.293 28.354 142.313 29.278C141.333 30.202 140.241 30.664 139.037 30.664C138.533 30.664 138.001 30.566 137.441 30.37C136.881 30.146 136.405 29.782 136.013 29.278C135.649 28.746 135.467 28.046 135.467 27.178C135.467 26.45 135.593 25.568 135.845 24.532C136.125 23.496 136.461 22.488 136.853 21.508C137.273 20.5 137.707 19.674 138.155 19.03C138.603 18.358 138.995 18.022 139.331 18.022C139.499 18.022 139.737 18.092 140.045 18.232C140.381 18.344 140.703 18.512 141.011 18.736C141.319 18.932 141.515 19.156 141.599 19.408C141.347 19.744 141.067 20.234 140.759 20.878C140.451 21.494 140.157 22.194 139.877 22.978C139.597 23.734 139.359 24.476 139.163 25.204C138.995 25.932 138.911 26.562 138.911 27.094C138.911 27.514 138.995 27.878 139.163 28.186C139.331 28.494 139.653 28.648 140.129 28.648C140.745 28.648 141.375 28.396 142.019 27.892C142.691 27.388 143.335 26.744 143.951 25.96C144.595 25.176 145.169 24.378 145.673 23.566C145.729 23.37 145.785 23.062 145.841 22.642C145.897 22.222 145.995 21.788 146.135 21.34C146.275 20.864 146.513 20.43 146.849 20.038C147.213 19.646 147.717 19.45 148.361 19.45C148.585 19.45 148.795 19.464 148.991 19.492C149.187 19.52 149.425 19.562 149.705 19.618C149.705 20.038 149.551 20.864 149.243 22.096C148.963 23.3 148.585 24.7 148.109 26.296C147.633 27.892 147.101 29.488 146.513 31.084C147.689 30.608 148.907 29.824 150.167 28.732C151.455 27.612 152.491 26.03 153.275 23.986L153.989 24.574C153.569 25.974 152.925 27.192 152.057 28.228C151.217 29.264 150.265 30.146 149.201 30.874C148.137 31.602 147.059 32.204 145.967 32.68C145.211 34.5 144.385 36.18 143.489 37.72C142.621 39.26 141.697 40.478 140.717 41.374C139.737 42.298 138.687 42.76 137.567 42.76ZM137.147 41.206C137.679 41.206 138.421 40.646 139.373 39.526C140.325 38.406 141.291 36.726 142.271 34.486C141.375 34.934 140.465 35.452 139.541 36.04C138.645 36.656 137.889 37.3 137.273 37.972C136.657 38.644 136.349 39.33 136.349 40.03C136.349 40.31 136.405 40.576 136.517 40.828C136.657 41.08 136.867 41.206 137.147 41.206ZM155.979 32.26C154.663 32.26 153.739 31.826 153.207 30.958C152.703 30.062 152.451 29.012 152.451 27.808C152.451 26.436 152.703 24.826 153.207 22.978C153.711 21.13 154.369 19.198 155.181 17.182C156.021 15.138 156.931 13.15 157.911 11.218C158.919 9.258 159.927 7.494 160.935 5.926C161.943 4.358 162.867 3.112 163.707 2.188C164.575 1.236 165.275 0.759999 165.807 0.759999C166.171 0.759999 166.479 0.955999 166.731 1.348C166.983 1.712 167.179 2.16 167.319 2.692C167.487 3.196 167.571 3.672 167.571 4.12C167.571 4.876 167.375 5.87 166.983 7.102C166.619 8.306 166.087 9.636 165.387 11.092C164.715 12.548 163.903 14.046 162.951 15.586C162.027 17.098 160.991 18.54 159.843 19.912C158.723 21.284 157.519 22.474 156.231 23.482C156.119 24.182 156.007 24.882 155.895 25.582C155.811 26.254 155.769 26.87 155.769 27.43C155.769 28.438 155.937 29.18 156.273 29.656C156.609 30.104 157.043 30.328 157.575 30.328C158.275 30.328 158.989 30.006 159.717 29.362C160.473 28.69 161.187 27.85 161.859 26.842C162.559 25.806 163.161 24.742 163.665 23.65L164.673 24.196C163.469 26.688 162.125 28.662 160.641 30.118C159.157 31.546 157.603 32.26 155.979 32.26ZM156.987 20.878C157.939 19.842 158.835 18.722 159.675 17.518C160.543 16.286 161.327 15.04 162.027 13.78C162.755 12.52 163.385 11.302 163.917 10.126C164.449 8.95 164.855 7.9 165.135 6.976C165.443 6.024 165.611 5.268 165.639 4.708C165.639 4.68 165.639 4.666 165.639 4.666C165.639 4.638 165.639 4.61 165.639 4.582C165.415 4.582 165.051 4.904 164.547 5.548C164.071 6.164 163.497 7.018 162.825 8.11C162.153 9.202 161.453 10.448 160.725 11.848C160.025 13.248 159.339 14.732 158.667 16.3C158.023 17.84 157.463 19.366 156.987 20.878ZM167.534 32.848C165.742 32.848 164.356 32.358 163.376 31.378C162.424 30.426 161.948 29.222 161.948 27.766C161.948 26.534 162.256 25.232 162.872 23.86C163.516 22.46 164.37 21.158 165.434 19.954C166.498 18.722 167.674 17.728 168.962 16.972C170.25 16.216 171.538 15.838 172.826 15.838C173.554 15.838 174.24 16.034 174.884 16.426C175.556 16.79 175.892 17.532 175.892 18.652C175.892 19.716 175.584 20.71 174.968 21.634C174.352 22.558 173.526 23.384 172.49 24.112C171.454 24.84 170.306 25.442 169.046 25.918C167.814 26.366 166.568 26.66 165.308 26.8C165.28 26.912 165.252 27.038 165.224 27.178C165.224 27.29 165.224 27.486 165.224 27.766C165.224 27.906 165.238 28.158 165.266 28.522C165.322 28.858 165.448 29.222 165.644 29.614C165.84 30.006 166.162 30.342 166.61 30.622C167.058 30.902 167.674 31.042 168.458 31.042C169.634 31.042 170.81 30.72 171.986 30.076C173.19 29.404 174.31 28.522 175.346 27.43C176.41 26.338 177.292 25.12 177.992 23.776L178.832 24.448C178.076 26.128 177.096 27.598 175.892 28.858C174.716 30.118 173.4 31.098 171.944 31.798C170.516 32.498 169.046 32.848 167.534 32.848ZM165.77 25.246C166.498 25.162 167.31 24.91 168.206 24.49C169.102 24.07 169.956 23.538 170.768 22.894C171.608 22.25 172.294 21.55 172.826 20.794C173.358 20.01 173.624 19.226 173.624 18.442C173.624 18.134 173.568 17.924 173.456 17.812C173.344 17.7 173.162 17.644 172.91 17.644C172.266 17.644 171.594 17.882 170.894 18.358C170.194 18.806 169.508 19.408 168.836 20.164C168.164 20.892 167.562 21.704 167.03 22.6C166.498 23.496 166.078 24.378 165.77 25.246Z" fill="white"/>
</svg>
