<svg width="65" height="71" viewBox="0 0 65 71" fill="none" xmlns="http://www.w3.org/2000/svg">
<g clip-path="url(#clip0_90_118)">
<path d="M32.4999 67.0554C27.7113 67.0554 23.1188 64.9776 19.7327 61.2789C16.3466 57.5803 14.4443 52.5639 14.4443 47.3332V23.6666C14.4443 18.4359 16.3466 13.4195 19.7327 9.72084C23.1188 6.02221 27.7113 3.94434 32.4999 3.94434C37.2885 3.94434 41.881 6.02221 45.2671 9.72084C48.6532 13.4195 50.5554 18.4359 50.5554 23.6666V47.3332C50.5554 49.9232 50.0884 52.4878 49.1811 54.8806C48.2737 57.2734 46.9437 59.4476 45.2671 61.2789C43.5905 63.1103 41.6001 64.563 39.4095 65.5542C37.2189 66.5453 34.871 67.0554 32.4999 67.0554ZM32.4999 7.88878C28.669 7.88878 24.995 9.55108 22.2861 12.51C19.5773 15.4689 18.0554 19.482 18.0554 23.6666V47.3332C18.0554 51.5177 19.5773 55.5309 22.2861 58.4898C24.995 61.4487 28.669 63.111 32.4999 63.111C36.3308 63.111 40.0048 61.4487 42.7137 58.4898C45.4225 55.5309 46.9443 51.5177 46.9443 47.3332V23.6666C46.9443 19.482 45.4225 15.4689 42.7137 12.51C40.0048 9.55108 36.3308 7.88878 32.4999 7.88878Z" fill="white"/>
<path d="M32.4999 29.5833C32.021 29.5833 31.5618 29.3755 31.2232 29.0057C30.8846 28.6358 30.6943 28.1342 30.6943 27.6111V19.7222C30.6943 19.1992 30.8846 18.6975 31.2232 18.3277C31.5618 17.9578 32.021 17.75 32.4999 17.75C32.9788 17.75 33.438 17.9578 33.7766 18.3277C34.1152 18.6975 34.3054 19.1992 34.3054 19.7222V27.6111C34.3054 28.1342 34.1152 28.6358 33.7766 29.0057C33.438 29.3755 32.9788 29.5833 32.4999 29.5833Z" fill="white"/>
</g>
<defs>
<clipPath id="clip0_90_118">
<rect width="65" height="71" fill="white"/>
</clipPath>
</defs>
</svg>
