<svg width="42" height="42" viewBox="0 0 42 42" fill="none" xmlns="http://www.w3.org/2000/svg">
<path d="M17.1818 27.2045C16.5136 27.2045 15.9485 26.9735 15.4865 26.5115C15.0245 26.0495 14.7942 25.4851 14.7955 24.8182C14.7955 24.15 15.0265 23.5849 15.4885 23.1229C15.9505 22.6609 16.5149 22.4305 17.1818 22.4318C17.85 22.4318 18.4151 22.6628 18.8771 23.1248C19.3391 23.5868 19.5695 24.1513 19.5682 24.8182C19.5682 25.4864 19.3372 26.0515 18.8752 26.5135C18.4132 26.9755 17.8487 27.2058 17.1818 27.2045ZM28.6364 27.2045C27.9682 27.2045 27.4031 26.9735 26.9411 26.5115C26.4791 26.0495 26.2487 25.4851 26.25 24.8182C26.25 24.15 26.481 23.5849 26.943 23.1229C27.405 22.6609 27.9695 22.4305 28.6364 22.4318C29.3045 22.4318 29.8696 22.6628 30.3316 23.1248C30.7936 23.5868 31.024 24.1513 31.0227 24.8182C31.0227 25.4864 30.7917 26.0515 30.3297 26.5135C29.8677 26.9755 29.3033 27.2058 28.6364 27.2045ZM22.9091 38.1818C27.1727 38.1818 30.7841 36.7023 33.7432 33.7432C36.7023 30.7841 38.1818 27.1727 38.1818 22.9091C38.1818 22.1455 38.1341 21.4054 38.0386 20.6888C37.9432 19.9723 37.7682 19.2805 37.5136 18.6136C36.8455 18.7727 36.1773 18.8924 35.5091 18.9725C34.8409 19.0527 34.1409 19.0922 33.4091 19.0909C30.5136 19.0909 27.7773 18.4705 25.2 17.2295C22.6227 15.9886 20.4273 14.2545 18.6136 12.0273C17.5955 14.5091 16.1395 16.6651 14.2456 18.4953C12.3518 20.3255 10.1487 21.7013 7.63636 22.6227V22.9091C7.63636 27.1727 9.11591 30.7841 12.075 33.7432C15.0341 36.7023 18.6455 38.1818 22.9091 38.1818ZM20.3318 7.875C21.6682 10.1023 23.4818 11.8924 25.7727 13.2453C28.0636 14.5982 30.6091 15.274 33.4091 15.2727C33.8545 15.2727 34.2841 15.2485 34.6977 15.2002C35.1114 15.1518 35.5409 15.0965 35.9864 15.0341C34.65 12.8068 32.8364 11.0167 30.5455 9.66382C28.2545 8.31091 25.7091 7.63509 22.9091 7.63636C22.4636 7.63636 22.0341 7.66055 21.6205 7.70891C21.2068 7.75727 20.7773 7.81264 20.3318 7.875ZM8.44773 18.0886C10.0705 17.1659 11.4864 15.9727 12.6955 14.5091C13.9045 13.0455 14.8114 11.4068 15.4159 9.59318C13.7932 10.5159 12.3773 11.7091 11.1682 13.1727C9.95909 14.6364 9.05227 16.275 8.44773 18.0886ZM6.06136 13.9841C6.95227 12.2977 8.07354 10.7787 9.42518 9.42709C10.7768 8.07545 12.2965 6.95355 13.9841 6.06136C13.4432 5.39318 12.7909 4.85227 12.0273 4.43864C11.2636 4.025 10.4205 3.81818 9.49773 3.81818C7.90682 3.81818 6.56218 4.36736 5.46382 5.46573C4.36545 6.56409 3.81691 7.90809 3.81818 9.49773C3.81818 10.4205 4.025 11.2636 4.43864 12.0273C4.85227 12.7909 5.39318 13.4432 6.06136 13.9841ZM22.9091 42C20.2682 42 17.7864 41.4985 15.4636 40.4956C13.1409 39.4927 11.1205 38.1328 9.40227 36.4159C7.68409 34.6977 6.32418 32.6773 5.32255 30.3545C4.32091 28.0318 3.81945 25.55 3.81818 22.9091C3.81818 21.9864 3.88182 21.0713 4.00909 20.1638C4.13636 19.2564 4.32727 18.3896 4.58182 17.5636C3.21364 16.7364 2.10827 15.6151 1.26573 14.1998C0.423182 12.7845 0.00127273 11.2165 0 9.49582C0 6.85618 0.922727 4.61364 2.76818 2.76818C4.61364 0.922727 6.85682 0 9.49773 0C11.1841 0 12.7355 0.406 14.1521 1.218C15.5686 2.03 16.7058 3.15127 17.5636 4.58182C18.3909 4.32727 19.2583 4.13636 20.1657 4.00909C21.0732 3.88182 21.9876 3.81818 22.9091 3.81818C25.55 3.81818 28.0318 4.31964 30.3545 5.32255C32.6773 6.32545 34.6977 7.68536 36.4159 9.40227C38.1341 11.1205 39.4946 13.1409 40.4975 15.4636C41.5005 17.7864 42.0013 20.2682 42 22.9091C42 25.55 41.4985 28.0318 40.4956 30.3545C39.4927 32.6773 38.1328 34.6977 36.4159 36.4159C34.6977 38.1341 32.6773 39.4946 30.3545 40.4975C28.0318 41.5005 25.55 42.0013 22.9091 42Z" fill="#D3D548"/>
</svg>
