<svg width="33" height="45" viewBox="0 0 33 45" fill="none" xmlns="http://www.w3.org/2000/svg">
<path d="M6.13907 19.188C4.72854 25.2642 12.5706 26.8104 10.7193 31.0914C8.86701 35.3715 4.72161 34.5158 5.18419 38.7959C5.64776 43.0769 11.1334 43.1371 16.1277 40.5585C26.1152 35.4001 28.1993 24.133 23.6795 19.188C18.1246 13.1118 7.54959 13.1118 6.13907 19.188Z" stroke="#D3D548" stroke-width="4"/>
<path d="M23.5772 14.4675C24.4154 15.169 25.95 14.7211 27.005 13.4671C28.0599 12.2131 28.2356 10.6279 27.3975 9.9264C26.5593 9.22491 25.0247 9.67281 23.9698 10.9268C22.9148 12.1808 22.7391 13.766 23.5772 14.4675Z" fill="#D3D548"/>
<path d="M19.1275 11.987C20.1191 12.4482 21.4852 11.6194 22.1788 10.1358C22.8724 8.65218 22.6308 7.0756 21.6392 6.61439C20.6476 6.15318 19.2815 6.98199 18.5879 8.46559C17.8943 9.94919 18.1359 11.5258 19.1275 11.987Z" fill="#D3D548"/>
<path d="M14.1302 11.2613C15.2184 11.3753 16.2395 10.148 16.4111 8.52004C16.5826 6.89203 15.8396 5.4798 14.7515 5.36573C13.6633 5.25165 12.6422 6.47894 12.4706 8.10694C12.2991 9.73495 13.0421 11.1472 14.1302 11.2613Z" fill="#D3D548"/>
<path d="M6.50267 10.4409C8.04487 9.88105 8.68836 7.76451 7.93994 5.71351C7.19152 3.66251 5.3346 2.45372 3.7924 3.0136C2.2502 3.57347 1.60671 5.69001 2.35514 7.74101C3.10356 9.79201 4.96047 11.0008 6.50267 10.4409Z" stroke="#D3D548" stroke-width="4"/>
<path d="M27.1738 18.0556C27.877 18.8916 29.4663 18.7163 30.7236 17.6641C31.9808 16.6119 32.4298 15.0811 31.7265 14.2451C31.0233 13.4092 29.434 13.5844 28.1767 14.6367C26.9195 15.6889 26.4705 17.2196 27.1738 18.0556Z" fill="#D3D548"/>
</svg>
