<svg width="40" height="40" viewBox="0 0 40 40" fill="none" xmlns="http://www.w3.org/2000/svg">
<path d="M15.6742 17.7891L17.7613 34.4859C17.8559 35.3043 17.6235 36.1271 17.1147 36.7751C16.6059 37.4232 15.8617 37.8441 15.0442 37.9463C14.2266 38.0486 13.4017 37.8239 12.749 37.3211C12.0962 36.8184 11.6684 36.0782 11.5585 35.2617L9.42188 18.1716" stroke="#D3D548" stroke-width="4" stroke-linecap="round" stroke-linejoin="round"/>
<path d="M31.7 5.78V14.42M10.1 2C7.95175 2 5.89148 2.85339 4.37244 4.37243C2.85339 5.89148 2 7.95175 2 10.1C2 12.2483 2.85339 14.3085 4.37244 15.8276C5.89148 17.3466 7.95175 18.2 10.1 18.2C11.5202 18.2 13.466 18.0425 15.6737 17.7896L26.8364 15.9698L38 14.15V6.05L24.05 4.025L10.1 2Z" stroke="#D3D548" stroke-width="4" stroke-linecap="round" stroke-linejoin="round"/>
<path d="M12.8004 10.1004C12.8004 10.8165 12.5159 11.5032 12.0096 12.0096C11.5032 12.5159 10.8165 12.8004 10.1004 12.8004C9.38431 12.8004 8.69755 12.5159 8.1912 12.0096C7.68485 11.5032 7.40039 10.8165 7.40039 10.1004C7.40039 9.38431 7.68485 8.69755 8.1912 8.1912C8.69755 7.68485 9.38431 7.40039 10.1004 7.40039C10.8165 7.40039 11.5032 7.68485 12.0096 8.1912C12.5159 8.69755 12.8004 9.38431 12.8004 10.1004Z" stroke="#D3D548" stroke-width="4" stroke-linecap="round" stroke-linejoin="round"/>
</svg>
