<svg width="38" height="37" viewBox="0 0 38 37" fill="none" xmlns="http://www.w3.org/2000/svg">
<path d="M18.9986 22.2799L14.2409 29.0803C14.2968 30.8097 13.7213 32.5003 12.6218 33.8363C11.5223 35.1724 9.97397 36.0625 8.26612 36.3404C6.55827 36.6183 4.80767 36.2649 3.34131 35.3464C1.87495 34.4278 0.793132 33.0068 0.297924 31.3489C-0.197285 29.691 -0.0720096 27.9095 0.650348 26.3372C1.37271 24.7648 2.64274 23.5093 4.22322 22.805C5.8037 22.1006 7.58652 21.9958 9.23867 22.5099C10.8908 23.0241 12.2993 24.1221 13.201 25.5989L17.2579 19.7956L4.96765 2.24344C4.75079 1.93365 4.66589 1.55041 4.7316 1.17802C4.79732 0.805629 5.00827 0.474596 5.31806 0.257744C5.62785 0.0408927 6.01109 -0.0440144 6.38349 0.0217016C6.75588 0.0874175 7.08691 0.298373 7.30376 0.608161L24.799 25.596C25.7007 24.1193 27.1092 23.0212 28.7613 22.5071C30.4135 21.9929 32.1963 22.0978 33.7768 22.8021C35.3573 23.5064 36.6273 24.762 37.3497 26.3343C38.072 27.9066 38.1973 29.6881 37.7021 31.3461C37.2069 33.004 36.125 34.4249 34.6587 35.3435C33.1923 36.2621 31.4417 36.6154 29.7339 36.3375C28.026 36.0597 26.4777 35.1696 25.3782 33.8335C24.2787 32.4974 23.7032 30.8068 23.7591 29.0774L19.0014 22.2799H18.9986ZM21.4202 13.8556L30.6962 0.608161C30.9131 0.298373 31.2441 0.0874175 31.6165 0.0217016C31.9889 -0.0440144 32.3721 0.0408927 32.6819 0.257744C32.9917 0.474596 33.2027 0.805629 33.2684 1.17802C33.3341 1.55041 33.2492 1.93365 33.0324 2.24344L23.1608 16.3399L21.423 13.8556H21.4202ZM4.66851 32.8124C5.12776 33.1424 5.64795 33.3779 6.19892 33.5054C6.74989 33.6329 7.32068 33.6498 7.87822 33.555C8.43575 33.4603 8.96893 33.2558 9.44685 32.9534C9.92478 32.6511 10.3379 32.2569 10.6624 31.7937C10.9868 31.3305 11.2161 30.8075 11.3369 30.255C11.4578 29.7026 11.4677 29.1316 11.3663 28.5753C11.2648 28.0189 11.0539 27.4882 10.7458 27.014C10.4377 26.5398 10.0386 26.1314 9.5715 25.8126C8.64249 25.1935 7.50811 24.9626 6.41103 25.1692C5.31394 25.3758 4.34126 26.0035 3.70104 26.918C3.06082 27.8326 2.8039 28.9614 2.98524 30.0629C3.16657 31.1644 3.77176 32.1513 4.67136 32.8124H4.66851ZM33.3286 32.8124C33.8025 32.4966 34.2085 32.0893 34.5228 31.6144C34.837 31.1395 35.0532 30.6066 35.1586 30.047C35.264 29.4874 35.2564 28.9123 35.1364 28.3557C35.0164 27.799 34.7864 27.2719 34.4598 26.8054C34.1333 26.3389 33.7167 25.9424 33.2348 25.6391C32.7528 25.3359 32.215 25.132 31.6531 25.0395C31.0913 24.947 30.5165 24.9678 29.9628 25.1005C29.409 25.2333 28.8874 25.4754 28.4285 25.8126C27.5289 26.4736 26.9237 27.4605 26.7424 28.562C26.561 29.6635 26.818 30.7923 27.4582 31.7069C28.0984 32.6214 29.0711 33.2491 30.1682 33.4557C31.2653 33.6623 32.3996 33.4314 33.3286 32.8124Z" fill="#D3D548"/>
</svg>
