<svg width="28" height="28" viewBox="0 0 28 28" fill="none" xmlns="http://www.w3.org/2000/svg">
<path d="M23.9196 4.80754C22.6296 3.56571 21.0931 2.58111 19.3997 1.91114C17.7063 1.24118 15.8898 0.899266 14.0563 0.905353C6.37387 0.905353 0.112563 6.87262 0.112563 14.1942C0.112563 16.5409 0.759799 18.8206 1.96985 20.832L0 27.7245L7.38693 25.874C9.42714 26.9334 11.7206 27.4966 14.0563 27.4966C21.7387 27.4966 28 21.5293 28 14.2077C28 10.6541 26.5508 7.31513 23.9196 4.80754ZM14.0563 25.2437C11.9739 25.2437 9.93367 24.7074 8.14673 23.7016L7.72462 23.4603L3.33467 24.5599L4.50251 20.4833L4.22111 20.0676C3.06417 18.3069 2.44985 16.2717 2.44824 14.1942C2.44824 8.1063 7.65427 3.14475 14.0422 3.14475C17.1377 3.14475 20.0503 4.29798 22.2312 6.38987C23.311 7.41432 24.1668 8.63284 24.7489 9.97482C25.331 11.3168 25.6278 12.7555 25.6221 14.2077C25.6503 20.2956 20.4442 25.2437 14.0563 25.2437ZM20.4161 16.9834C20.0643 16.8225 18.3477 16.018 18.0382 15.8973C17.7146 15.79 17.4894 15.7364 17.2503 16.0582C17.0111 16.3934 16.3497 17.1444 16.1528 17.3589C15.9558 17.5869 15.7447 17.6137 15.393 17.4394C15.0412 17.2785 13.9156 16.9164 12.593 15.79C11.5518 14.905 10.8623 13.8188 10.6513 13.4835C10.4543 13.1483 10.6231 12.974 10.806 12.7997C10.9608 12.6521 11.1578 12.4108 11.3266 12.223C11.4955 12.0353 11.5658 11.8878 11.6784 11.6732C11.791 11.4453 11.7347 11.2576 11.6503 11.0966C11.5658 10.9357 10.8623 9.29975 10.5809 8.62927C10.2995 7.98561 10.004 8.06607 9.79296 8.05266H9.11759C8.87839 8.05266 8.51256 8.13312 8.18894 8.46836C7.8794 8.8036 6.97889 9.60817 6.97889 11.2441C6.97889 12.8801 8.23116 14.4624 8.4 14.677C8.56884 14.905 10.8623 18.2574 14.3518 19.6922C15.1819 20.0408 15.8291 20.242 16.3357 20.3895C17.1658 20.6443 17.9256 20.604 18.5307 20.5236C19.206 20.4297 20.599 19.719 20.8804 18.9412C21.1759 18.1635 21.1759 17.5064 21.0774 17.3589C20.9789 17.2114 20.7678 17.1444 20.4161 16.9834Z" fill="black"/>
</svg>
